# AST/ASF file generated using VICON BodyLanguage
# -----------------------------------------------
:version 1.10
:name VICON
:units
  mass 1.0
  length 0.45
  angle deg
:documentation
   .ast/.asf automatically generated from VICON data using
   VICON BodyBuilder and BodyLanguage model FoxedUp or BRILLIANT.MOD
:root
   order TX TY TZ RX RY RZ
   axis XYZ
   position 0 0 0  
   orientation 0 0 0 
:bonedata
  begin
     id 1 
     name lhipjoint
     direction 0.722297 -0.617336 0.311742 
     length 2.6635 
     axis 0 0 0  XYZ
  end
  begin
     id 2 
     name lfemur
     direction 0.34202 -0.939693 0  
     length 7.39349  
     axis 0 0 20  XYZ
    dof rx ry rz
    limits (-160.0 20.0)
           (-70.0 70.0)
           (-60.0 70.0)
  end
  begin
     id 3 
     name ltibia
     direction 0.34202 -0.939693 0   
     length 7.36294   
     axis 0 0 20   XYZ
    dof rx
    limits (-10.0 170.0)
  end
  begin
     id 4 
     name lfoot
     direction 0.104879 -0.288152 0.951824   
     length 2.16981   
     axis -90 7.62852e-016 20   XYZ
    dof rx rz
    limits (-45.0 90.0)
           (-70.0 20.0)
  end
  begin
     id 5 
     name ltoes
     direction 1.53586e-011 -4.21895e-011 1   
     length 1.08218   
     axis -90 7.62852e-016 20   XYZ
    dof rx
    limits (-90.0 20.0)
  end
  begin
     id 6 
     name rhipjoint
     direction -0.75102 -0.589393 0.297631   
     length 2.78977  
     axis 0 0 0  XYZ 
  end
  begin
     id 7 
     name rfemur
     direction -0.34202 -0.939693 0   
     length 7.46076   
     axis 0 0 -20   XYZ
    dof rx ry rz
    limits (-160.0 20.0)
           (-70.0 70.0)
           (-70.0 60.0)
  end
  begin
     id 8 
     name rtibia
     direction -0.34202 -0.939693 0   
     length 7.31726   
     axis 0 0 -20   XYZ
    dof rx
    limits (-10.0 170.0)
 end
 begin
     id 9 
     name rfoot
     direction -0.107991 -0.296704 0.948844   
     length 2.09388  
     axis -90 -7.62852e-016 -20   XYZ
    dof rx rz
    limits (-45.0 90.0)
           (-20.0 70.0)
  end
  begin
     id 10 
     name rtoes
     direction -1.53559e-011 -4.21911e-011 1   
     length 1.04433   
     axis -90 -7.62852e-016 -20   XYZ
    dof rx
    limits (-90.0 20.0)
  end
  begin
     id 11 
     name lowerback
     direction 0.0165164 0.98272 0.184358   
     length 1.71896   
     axis 0 0 0   XYZ
    dof rx ry rz
    limits (-20.0 45.0)
           (-30.0 30.0)
           (-30.0 30.0)
  end
  begin
     id 12 
     name upperback
     direction -0.00887249 0.992297 0.123566   
     length 1.71504   
     axis 0 0 0   XYZ
    dof rx ry rz
    limits (-20.0 45.0)
           (-30.0 30.0)
           (-30.0 30.0)
  end
  begin
     id 13 
     name thorax
     direction -0.0157026 0.998908 0.0440032   
     length 1.77022   
     axis 0 0 0   XYZ
    dof rx ry rz
    limits (-20.0 45.0)
           (-30.0 30.0)
           (-30.0 30.0)
  end
  begin
     id 14 
     name lowerneck
     direction -0.0238856 0.998137 0.0561411   
     length 1.89341   
     axis 0 0 0   XYZ
    dof rx ry rz
    limits (-20.0 45.0)
           (-30.0 30.0)
           (-30.0 30.0)
  end
  begin
     id 15 
     name upperneck
     direction 0.0276574 0.952253 -0.304056   
     length 1.86999   
     axis 0 0 0   XYZ
    dof rx ry rz
    limits (-20.0 45.0)
           (-30.0 30.0)
           (-30.0 30.0)
  end
  begin
     id 16
     name head
     direction 0.00800083 0.994258 -0.106712  
     length 1.91492  
     axis 0 0 0   XYZ
    dof rx ry rz
    limits (-20.0 45.0)
           (-30.0 30.0)
           (-30.0 30.0)
  end
  begin
     id 17 
     name lclavicle
     direction 0.97203 0.225407 0.06595  
     length 3.34889  
     axis 0 0 0   XYZ
    dof ry rz
    limits (-20.0 10.0)
           (0.0 20.0)
  end
  begin
     id 18 
     name lhumerus
     direction 1 -4.48973e-011 2.20267e-027   
     length 4.85645   
     axis 180 -30 -90   XYZ
    dof rx ry rz
    limits (-60.0 90.0)
           (-90.0 90.0)
           (-90.0 90.0)
  end
  begin
     id 19
     name lradius
     direction 1 -4.4897e-011 4.60472e-027   
     length 2.79874   
     axis 180 -30 -90   XYZ
    dof rx
    limits (-10.0 170.0)
  end
  begin
     id 20
     name lwrist
     direction 1 -4.48952e-011 1.14928e-026   
     length 1.39937   
     axis -6.29373e-015 90 90   XYZ
    dof ry
    limits (-180.0 0.0)
 end
  begin
     id 21 
     name lhand
     direction 1 -4.48967e-011 2.29886e-026   
     length 0.573398   
     axis -1.46689e-014 90 90   XYZ
    dof rx rz
    limits (-90.0 90.0)
           (-45.0 45.0)
  end
  begin
     id 22 
     name lfingers
     direction 1 -4.48955e-011 4.59726e-026   
     length 0.462289   
     axis -2.93383e-014 90 90   XYZ
    dof rx
    limits (0.0 90.0)
  end
  begin
     id 23
     name lthumb
     direction 0.707107 -6.34866e-011 0.707107   
     length 0.663757   
     axis -90 45 5.69224e-014   XYZ
    dof rx rz
    limits (-45.0 45.0)
           (-45.0 45.0)
  end
  begin
     id 24 
     name rclavicle
     direction -0.981571 0.157346 0.108443   
     length 3.35257  
     axis 0 0 0   XYZ 
    dof ry rz
    limits (-10.0 20.0)
           (-20.0 0.0)
  end
  begin
     id 25 
     name rhumerus
     direction -1 -4.48967e-011 8.58308e-029  
     length 4.67018   
     axis 180 30 90   XYZ
    dof rx ry rz
    limits (-90.0 60.0)
           (-90.0 90.0)
           (-90.0 90.0)
  end
  begin
     id 26 
     name rradius
     direction -1 -4.48958e-011 4.52548e-027   
     length 2.65534   
     axis 180 30 90   XYZ
    dof rx
    limits (-10.0 170.0)
  end
  begin
     id 27 
     name rwrist
     direction -1 -4.48977e-011 1.14952e-026   
     length 1.32767   
     axis -6.29373e-015 -90 -90   XYZ
    dof ry
    limits (-180.0 0.0)
  end
  begin
     id 28
     name rhand
     direction -1 -4.48924e-011 2.29804e-026   
     length 0.594069   
     axis -1.46689e-014 -90 -90   XYZ
    dof rx rz
    limits (-90.0 90.0)
           (-45.0 45.0)
  end
  begin
     id 29
     name rfingers
     direction -1 -4.48998e-011 4.59888e-026   
     length 0.478954   
     axis -2.93383e-014 -90 -90   XYZ
    dof rx
    limits (0.0 90.0)
  end
  begin
     id 30
     name rthumb
     direction -0.707107 -6.34933e-011 0.707107   
     length 0.687685   
     axis -90 -45 -5.69224e-014   XYZ
    dof rx rz
    limits (-45.0 45.0)
           (-45.0 45.0)
  end
:hierarchy
  begin
    root lhipjoint rhipjoint lowerback
    lhipjoint lfemur
    lfemur ltibia
    ltibia lfoot
    lfoot ltoes
    rhipjoint rfemur
    rfemur rtibia
    rtibia rfoot
    rfoot rtoes
    lowerback upperback
    upperback thorax
    thorax lowerneck lclavicle rclavicle
    lowerneck upperneck
    upperneck head
    lclavicle lhumerus
    lhumerus lradius
    lradius lwrist
    lwrist lhand lthumb
    lhand lfingers
    rclavicle rhumerus
    rhumerus rradius
    rradius rwrist
    rwrist rhand rthumb
    rhand rfingers
  end

#!OML:ASF E:\pregnant2\Project 1\Capture day 1\Session 1\pregnant2.ASF
:FULLY-SPECIFIED
:DEGREES
160
root 7.70474 10.547 15.7201 12.6267 0.476047 4.33888
lowerback 6.63169 -1.39665 -4.60189
upperback -11.7891 -2.84748 -1.52838
thorax -16.8802 -0.879801 1.42395
lowerneck -12.9479 -6.77224 -9.63012
upperneck 25.5249 -9.5126 7.72515
head 11.2568 -4.41118 3.10428
rclavicle 1.07841e-014 7.95139e-016
rhumerus -28.6046 37.4737 -104.802
rradius 55.1226
rwrist 28.2072
rhand -8.7362 -1.59215
rfingers 7.12502
rthumb 17.2004 -30.8509
lclavicle 1.07841e-014 7.95139e-016
lhumerus -28.7726 -35.3887 101.811
lradius 56.0199
lwrist -23.5231
lhand -4.52104 15.7914
lfingers 7.12502
lthumb 21.2535 44.6461
rfemur -98.1954 -8.45374 13.7045
rtibia 72.9517
rfoot 14.305 -4.53349
rtoes 4.93482
lfemur -94.7787 0.703949 -19.5895
ltibia 65.8012
lfoot 14.6564 -4.99995
ltoes -18.2984
161
root 7.70471 10.5454 15.7199 12.6233 0.490796 4.34534
lowerback 6.63824 -1.3969 -4.60363
upperback -11.7918 -2.84974 -1.53605
thorax -16.8885 -0.881048 1.41689
lowerneck -12.9537 -6.76571 -9.62765
upperneck 25.5522 -9.50547 7.72518
head 11.2673 -4.40741 3.10516
rclavicle 2.23633e-014 1.53064e-014
rhumerus -28.6132 37.444 -104.801
rradius 55.1075
rwrist 28.2479
rhand -8.78473 -1.54516
rfingers 7.12502
rthumb 17.1536 -30.808
lclavicle 2.23633e-014 1.53064e-014
lhumerus -28.7857 -35.4059 101.825
lradius 56.012
lwrist -23.5143
lhand -4.52861 15.7951
lfingers 7.12502
lthumb 21.2463 44.6507
rfemur -98.2048 -8.46818 13.6957
rtibia 72.9734
rfoot 14.2964 -4.54142
rtoes 4.95841
lfemur -94.7853 0.688844 -19.594
ltibia 65.8077
lfoot 14.6573 -5.00555
ltoes -18.3074
162
root 7.70473 10.5437 15.7198 12.6198 0.504432 4.34812
lowerback 6.64559 -1.39641 -4.60092
upperback -11.7953 -2.85034 -1.54323
thorax -16.8983 -0.881993 1.40761
lowerneck -12.9555 -6.75902 -9.62551
upperneck 25.5778 -9.49862 7.72647
head 11.2766 -4.40379 3.1066
rclavicle -1.37161e-014 -1.70955e-014
rhumerus -28.6259 37.4222 -104.801
rradius 55.098
rwrist 28.2773
rhand -8.83122 -1.50439
rfingers 7.12502
rthumb 17.1089 -30.7711
lclavicle -1.37161e-014 -1.70955e-014
lhumerus -28.8003 -35.4232 101.84
lradius 56.0055
lwrist -23.5055
lhand -4.52305 15.8004
lfingers 7.12502
lthumb 21.2516 44.6553
rfemur -98.214 -8.48039 13.6909
rtibia 72.9942
rfoot 14.2896 -4.54717
rtoes 4.97072
lfemur -94.7935 0.675705 -19.5948
ltibia 65.8162
lfoot 14.6586 -5.01506
ltoes -18.3333
163
root 7.70479 10.5418 15.7197 12.6142 0.518726 4.34781
lowerback 6.65641 -1.39546 -4.59398
upperback -11.7979 -2.84983 -1.55029
thorax -16.9096 -0.882915 1.39598
lowerneck -12.9576 -6.75307 -9.62115
upperneck 25.603 -9.49266 7.72545
head 11.2856 -4.40061 3.10668
rclavicle -3.8266e-015 -6.75868e-015
rhumerus -28.6357 37.3975 -104.801
rradius 55.0877
rwrist 28.3008
rhand -8.86774 -1.46862
rfingers 7.12502
rthumb 17.0738 -30.7384
lclavicle -3.8266e-015 -6.75868e-015
lhumerus -28.8142 -35.4406 101.854
lradius 55.9993
lwrist -23.5015
lhand -4.51038 15.8035
lfingers 7.12502
lthumb 21.2638 44.6571
rfemur -98.2212 -8.49193 13.6894
rtibia 73.0142
rfoot 14.2836 -4.55333
rtoes 4.98345
lfemur -94.8012 0.662632 -19.5922
ltibia 65.8258
lfoot 14.6638 -5.02516
ltoes -18.3711
164
root 7.70482 10.5399 15.7195 12.6081 0.532435 4.34671
lowerback 6.66931 -1.39406 -4.587
upperback -11.8005 -2.84877 -1.55678
thorax -16.9223 -0.883492 1.38496
lowerneck -12.958 -6.74729 -9.61507
upperneck 25.6259 -9.48626 7.72071
head 11.2931 -4.39755 3.10518
rclavicle -2.29099e-014 -3.598e-014
rhumerus -28.6467 37.3777 -104.801
rradius 55.0818
rwrist 28.3179
rhand -8.88839 -1.44087
rfingers 7.12502
rthumb 17.0539 -30.7123
lclavicle -2.29099e-014 -3.598e-014
lhumerus -28.8278 -35.4608 101.869
lradius 55.9929
lwrist -23.4979
lhand -4.49759 15.8048
lfingers 7.12502
lthumb 21.2761 44.657
rfemur -98.2276 -8.50212 13.6885
rtibia 73.0328
rfoot 14.2811 -4.55472
rtoes 4.96937
lfemur -94.809 0.650538 -19.5887
ltibia 65.8359
lfoot 14.6692 -5.03583
ltoes -18.4109
